<svg width="32" height="32" viewBox="0 0 32 32" fill="none" xmlns="http://www.w3.org/2000/svg">
  <path d="M16 4C9.37 4 4 8.37 4 14c0 3.7 2.01 6.94 5 8.65V28l4.5-4.5c.83.17 1.65.25 2.5.25 6.63 0 12-4.37 12-10S22.63 4 16 4z" fill="#4F46E5"/>
  <path d="M12 14c0 .55-.45 1-1 1s-1-.45-1-1 .45-1 1-1 1 .45 1 1z" fill="white"/>
  <path d="M16 14c0 .55-.45 1-1 1s-1-.45-1-1 .45-1 1-1 1 .45 1 1z" fill="white"/>
  <path d="M20 14c0 .55-.45 1-1 1s-1-.45-1-1 .45-1 1-1 1 .45 1 1z" fill="white"/>
  <path d="M8 19c.78 1.38 3.09 3 8 3 4.91 0 7.22-1.62 8-3" stroke="white" stroke-width="1.5" stroke-linecap="round"/>
</svg>
